<svg width="306" height="180" viewBox="0 0 306 180" fill="none"
    xmlns="http://www.w3.org/2000/svg">
    <path d="M217.5 111C217.5 127.443 210.968 143.213 199.341 154.841C187.713 166.468 171.943 173 155.5 173C139.057 173 123.287 166.468 111.659 154.841C100.032 143.213 93.5 127.443 93.5 111C93.5 94.5566 100.032 78.7866 111.659 67.1594C123.287 55.5321 139.057 49 155.5 49C171.943 49 187.713 55.5321 199.341 67.1594C210.968 78.7866 217.5 94.5566 217.5 111ZM186.732 87.5175C186.179 86.9658 185.52 86.5315 184.794 86.2404C184.069 85.9493 183.293 85.8075 182.511 85.8234C181.73 85.8394 180.96 86.0127 180.247 86.3331C179.534 86.6534 178.893 87.1143 178.362 87.688L151.447 121.982L135.226 105.753C134.124 104.727 132.667 104.168 131.161 104.194C129.655 104.221 128.218 104.831 127.153 105.896C126.088 106.961 125.478 108.397 125.452 109.903C125.425 111.409 125.984 112.866 127.011 113.968L147.517 134.482C148.07 135.034 148.728 135.468 149.452 135.76C150.176 136.052 150.951 136.195 151.732 136.18C152.512 136.166 153.281 135.994 153.994 135.676C154.707 135.358 155.348 134.899 155.88 134.327L186.818 95.655C187.872 94.5584 188.455 93.0919 188.441 91.5704C188.426 90.049 187.816 88.5938 186.74 87.5175H186.732Z" fill="#EA5B0C"/>
    <path d="M59.7007 102.93C59.7007 102.93 63.4776 104.256 66.4259 102.024L66.3639 98.7803C66.3639 98.7803 64.7112 100.955 60.3177 100.753L59.7007 102.93Z" fill="#828282"/>
    <path d="M22.142 121.8C22.142 121.8 22.5647 125.781 25.8495 127.517L28.7634 126.104C26.8484 125.052 25.3108 123.423 24.3701 121.451L22.142 121.8Z" fill="#323232"/>
    <path d="M81.387 40.1C81.387 40.1 83.6217 43.4309 82.2029 46.8464L79.0567 47.6007C79.8536 45.5802 79.9907 43.3553 79.4484 41.2431L81.387 40.1Z" fill="#323232"/>
    <path d="M52.4557 47.2583C52.4557 47.2583 49.9522 50.358 46.2785 50.0159L44.5963 47.2263C44.5963 47.2263 46.8083 47.8914 50.4293 45.4266L52.4557 47.2583Z" fill="#F79623"/>
    <path d="M67.9835 155.392C67.9835 155.392 71.177 153.01 70.9763 149.325L68.2259 147.564C68.2259 147.564 68.8055 149.8 66.2144 153.324L67.9835 155.392Z" fill="#F79623"/>
    <path d="M34.4864 77.309C36.9928 74.3659 45.2137 75.4205 44.6625 80.2638C44.3557 82.9491 40.5543 85.5662 38.3528 83.2126C38.2984 83.1411 38.2687 83.0539 38.2681 82.9643C38.2676 82.8748 38.2963 82.7876 38.3498 82.7162C40.058 80.1057 43.1074 78.9877 45.1923 81.8998C46.0437 83.1853 46.4375 84.7182 46.3095 86.2492C46.1815 87.7802 45.5393 89.2194 44.4873 90.3329C44.3558 90.4594 44.1822 90.1803 44.2431 90.0792C45.751 87.8527 46.4012 84.9431 44.8044 82.5492C44.543 82.1058 44.1903 81.7227 43.7698 81.4256C43.3492 81.1286 42.8707 80.9245 42.3663 80.8269C41.8054 80.7595 41.2383 80.8613 40.7379 81.1192C40.3138 81.3254 38.9611 82.266 38.9639 82.7732C38.9797 83.8203 41.2203 83.3638 41.7691 83.1118C42.3221 82.8686 42.8131 82.5049 43.2066 82.0472C43.6001 81.5895 43.8863 81.0493 44.0443 80.4656C44.4145 78.5479 42.6594 77.2942 41.0659 76.7456C38.9142 76.0118 36.4477 76.0909 34.6966 77.6591C34.5432 77.8067 34.3386 77.4406 34.4485 77.3136L34.4864 77.309Z" fill="#F79623"/>
    <path d="M250.703 95.3065C250.703 95.3065 247.355 97.5013 243.957 96.0432L243.238 92.8793C243.238 92.8793 245.364 94.5933 249.581 93.3419L250.703 95.3065Z" fill="#828282"/>
    <path d="M291.695 104.602C291.695 104.602 292.241 108.567 289.469 111.042L286.301 110.37C287.907 108.889 289.009 106.939 289.448 104.798L291.695 104.602Z" fill="#323232"/>
    <path d="M214.558 39.5263C214.558 39.5263 213.189 43.2965 215.387 46.2712L218.622 46.2477C217.363 44.4777 216.696 42.3509 216.715 40.1703L214.558 39.5263Z" fill="#323232"/>
    <path d="M244.362 39.5248C244.362 39.5248 247.537 41.9323 251.021 40.7178L251.983 37.6057C251.983 37.6057 249.996 38.7827 245.889 37.26L244.362 39.5248Z" fill="#F79623"/>
    <path d="M255.265 148.223C255.265 148.223 251.593 146.677 250.903 143.052L253.149 140.681C253.149 140.681 253.124 142.991 256.486 145.789L255.265 148.223Z" fill="#F79623"/>
    <path d="M269.024 64.3789C265.884 62.1241 258.157 65.1226 259.856 69.6917C260.798 72.2247 265.117 73.852 266.689 71.0385C266.724 70.9559 266.732 70.8642 266.711 70.7771C266.69 70.69 266.642 70.6123 266.572 70.5558C264.287 68.4322 261.059 68.0794 259.734 71.4071C259.217 72.8595 259.203 74.4421 259.695 75.8975C260.187 77.353 261.156 78.5957 262.444 79.4239C262.602 79.5151 262.704 79.2025 262.621 79.119C260.622 77.3199 259.292 74.6517 260.267 71.9443C260.414 71.451 260.664 70.9944 261.001 70.6051C261.338 70.2157 261.754 69.9026 262.22 69.6868C262.748 69.4866 263.323 69.4492 263.871 69.5793C264.332 69.6776 265.871 70.2657 265.99 70.7587C266.226 71.7789 263.942 71.8741 263.348 71.7613C262.753 71.658 262.189 71.423 261.697 71.0732C261.205 70.7234 260.798 70.2677 260.504 69.7391C259.684 67.9665 261.087 66.3279 262.502 65.4126C264.414 64.1833 266.827 63.6676 268.904 64.7692C269.088 64.8757 269.199 64.4711 269.062 64.3742L269.024 64.3789Z" fill="#F79623"/>
</svg>
