<svg width="33" height="32" viewBox="0 0 33 32" fill="none"
    xmlns="http://www.w3.org/2000/svg">
    <path d="M24.9202 23.6667H10.7202C9.40015 23.6667 8.13349 23.1068 7.24015 22.1334C6.34682 21.1601 5.8935 19.8534 6.00016 18.5334L7.10683 5.25342C7.14683 4.84008 7.00015 4.44009 6.72015 4.13342C6.44015 3.82676 6.05349 3.66675 5.64016 3.66675H3.3335C2.78683 3.66675 2.3335 3.21341 2.3335 2.66675C2.3335 2.12008 2.78683 1.66675 3.3335 1.66675H5.6535C6.62684 1.66675 7.54682 2.08008 8.20015 2.78674C8.56015 3.18674 8.82682 3.65342 8.97349 4.17342H25.6268C26.9735 4.17342 28.2135 4.70675 29.1202 5.66675C30.0135 6.64008 30.4668 7.90675 30.3602 9.25342L29.6402 19.2534C29.4935 21.6934 27.3602 23.6667 24.9202 23.6667ZM9.04016 6.16008L8.00016 18.6934C7.9335 19.4667 8.18683 20.2001 8.70683 20.7734C9.22683 21.3467 9.94682 21.6534 10.7202 21.6534H24.9202C26.3068 21.6534 27.5602 20.4801 27.6668 19.0934L28.3868 9.09342C28.4402 8.30676 28.1868 7.56009 27.6668 7.01343C27.1468 6.45343 26.4268 6.14673 25.6402 6.14673H9.04016V6.16008Z" fill="#828282"/>
    <path d="M22.3334 30.3333C20.8667 30.3333 19.6667 29.1333 19.6667 27.6667C19.6667 26.2 20.8667 25 22.3334 25C23.8001 25 25.0001 26.2 25.0001 27.6667C25.0001 29.1333 23.8001 30.3333 22.3334 30.3333ZM22.3334 27C21.9601 27 21.6667 27.2933 21.6667 27.6667C21.6667 28.04 21.9601 28.3333 22.3334 28.3333C22.7067 28.3333 23.0001 28.04 23.0001 27.6667C23.0001 27.2933 22.7067 27 22.3334 27Z" fill="#828282"/>
    <path d="M11.6667 30.3333C10.2 30.3333 9 29.1333 9 27.6667C9 26.2 10.2 25 11.6667 25C13.1333 25 14.3333 26.2 14.3333 27.6667C14.3333 29.1333 13.1333 30.3333 11.6667 30.3333ZM11.6667 27C11.2933 27 11 27.2933 11 27.6667C11 28.04 11.2933 28.3333 11.6667 28.3333C12.04 28.3333 12.3333 28.04 12.3333 27.6667C12.3333 27.2933 12.04 27 11.6667 27Z" fill="#828282"/>
    <path d="M28.6667 11.6667H12.6667C12.1201 11.6667 11.6667 11.2134 11.6667 10.6667C11.6667 10.1201 12.1201 9.66675 12.6667 9.66675H28.6667C29.2134 9.66675 29.6667 10.1201 29.6667 10.6667C29.6667 11.2134 29.2134 11.6667 28.6667 11.6667Z" fill="#828282"/>
</svg>
