<svg width="16" height="16" viewBox="0 0 16 16" fill="none"
    xmlns="http://www.w3.org/2000/svg">
    <path d="M7.06659 11.0666L11.7666 6.36665L10.8333 5.43331L7.06659 9.19998L5.16659 7.29998L4.23325 8.23331L7.06659 11.0666ZM7.99992 14.6666C7.0777 14.6666 6.21103 14.4915 5.39992 14.1413C4.58881 13.7911 3.88325 13.3162 3.28325 12.7166C2.68325 12.1166 2.20836 11.4111 1.85859 10.6C1.50881 9.78887 1.3337 8.9222 1.33325 7.99998C1.33325 7.07776 1.50836 6.21109 1.85859 5.39998C2.20881 4.58887 2.6837 3.88331 3.28325 3.28331C3.88325 2.68331 4.58881 2.20842 5.39992 1.85865C6.21103 1.50887 7.0777 1.33376 7.99992 1.33331C8.92214 1.33331 9.78881 1.50842 10.5999 1.85865C11.411 2.20887 12.1166 2.68376 12.7166 3.28331C13.3166 3.88331 13.7917 4.58887 14.1419 5.39998C14.4921 6.21109 14.667 7.07776 14.6666 7.99998C14.6666 8.9222 14.4915 9.78887 14.1413 10.6C13.791 11.4111 13.3161 12.1166 12.7166 12.7166C12.1166 13.3166 11.411 13.7918 10.5999 14.142C9.78881 14.4922 8.92214 14.6671 7.99992 14.6666Z" fill="#FDEFE7"/>
</svg>
