<svg width="32" height="32" viewBox="0 0 32 32" fill="none"
    xmlns="http://www.w3.org/2000/svg">
    <path d="M16 25C15.4533 25 15 24.5467 15 24V20C15 19.4533 15.4533 19 16 19C16.5467 19 17 19.4533 17 20V24C17 24.5467 16.5467 25 16 25Z" fill="#828282"/>
    <path d="M23.4666 30.0799H8.53328C6.10661 30.0799 3.89328 28.2133 3.49328 25.8266L1.71995 15.1999C1.42661 13.5466 2.23995 11.4266 3.55995 10.3733L12.7999 2.97326C14.5866 1.53326 17.3999 1.54659 19.1999 2.98659L28.4399 10.3733C29.7466 11.4266 30.5466 13.5466 30.2799 15.1999L28.5066 25.8133C28.1066 28.1733 25.8399 30.0799 23.4666 30.0799ZM15.9866 3.90659C15.2799 3.90659 14.5733 4.11993 14.0533 4.53326L4.81328 11.9466C4.06661 12.5466 3.53328 13.9333 3.69328 14.8799L5.46661 25.4933C5.70661 26.8933 7.10661 28.0799 8.53328 28.0799H23.4666C24.8933 28.0799 26.2933 26.8933 26.5333 25.4799L28.3066 14.8666C28.4533 13.9333 27.9199 12.5199 27.1866 11.9333L17.9466 4.54659C17.4133 4.11993 16.6933 3.90659 15.9866 3.90659Z" fill="#828282"/>
</svg>
