<svg width="16" height="16" viewBox="0 0 16 16" fill="none"
    xmlns="http://www.w3.org/2000/svg">
    <path d="M12 7.16658C11.7267 7.16658 11.5 6.93992 11.5 6.66658V5.33325C11.5 3.23325 10.9067 1.83325 8 1.83325C5.09333 1.83325 4.5 3.23325 4.5 5.33325V6.66658C4.5 6.93992 4.27333 7.16658 4 7.16658C3.72667 7.16658 3.5 6.93992 3.5 6.66658V5.33325C3.5 3.39992 3.96667 0.833252 8 0.833252C12.0333 0.833252 12.5 3.39992 12.5 5.33325V6.66658C12.5 6.93992 12.2733 7.16658 12 7.16658Z" fill="#A2C617"/>
    <path d="M11.3334 15.1667H4.66671C1.72671 15.1667 0.833374 14.2734 0.833374 11.3334V10.0001C0.833374 7.06008 1.72671 6.16675 4.66671 6.16675H11.3334C14.2734 6.16675 15.1667 7.06008 15.1667 10.0001V11.3334C15.1667 14.2734 14.2734 15.1667 11.3334 15.1667ZM4.66671 7.16675C2.28004 7.16675 1.83337 7.62008 1.83337 10.0001V11.3334C1.83337 13.7134 2.28004 14.1667 4.66671 14.1667H11.3334C13.72 14.1667 14.1667 13.7134 14.1667 11.3334V10.0001C14.1667 7.62008 13.72 7.16675 11.3334 7.16675H4.66671Z" fill="#A2C617"/>
    <path d="M5.33329 11.3333C5.24663 11.3333 5.15996 11.3133 5.07996 11.28C4.99329 11.2467 4.92663 11.2 4.85997 11.14C4.73997 11.0133 4.66663 10.8467 4.66663 10.6667C4.66663 10.58 4.68662 10.4933 4.71995 10.4133C4.75328 10.3267 4.79997 10.26 4.85997 10.1933C4.92663 10.1333 4.99329 10.0867 5.07996 10.0533C5.31996 9.94665 5.61995 10.0067 5.80662 10.1933C5.86662 10.26 5.9133 10.3333 5.94664 10.4133C5.97997 10.4933 5.99996 10.58 5.99996 10.6667C5.99996 10.84 5.92662 11.0133 5.80662 11.14C5.67995 11.26 5.50663 11.3333 5.33329 11.3333Z" fill="#A2C617"/>
    <path d="M8.00004 11.3334C7.82671 11.3334 7.65338 11.2601 7.52671 11.1401C7.40671 11.0134 7.33337 10.8468 7.33337 10.6668C7.33337 10.5801 7.3467 10.4934 7.3867 10.4134C7.42003 10.3334 7.46671 10.2601 7.52671 10.1934C7.68005 10.0401 7.91338 9.96676 8.12671 10.0134C8.17338 10.0201 8.21338 10.0334 8.25338 10.0534C8.29338 10.0668 8.33337 10.0868 8.37337 10.1134C8.40671 10.1334 8.44004 10.1668 8.47337 10.1934C8.53337 10.2601 8.58005 10.3334 8.61338 10.4134C8.64672 10.4934 8.66671 10.5801 8.66671 10.6668C8.66671 10.8468 8.59337 11.0134 8.47337 11.1401C8.44004 11.1668 8.40671 11.1934 8.37337 11.2201C8.33337 11.2468 8.29338 11.2668 8.25338 11.2801C8.21338 11.3001 8.17338 11.3134 8.12671 11.3201C8.08671 11.3268 8.04004 11.3334 8.00004 11.3334Z" fill="#A2C617"/>
    <path d="M10.6667 11.3334C10.4867 11.3334 10.32 11.2601 10.1933 11.1401C10.1333 11.0734 10.0867 11.0001 10.0533 10.9201C10.02 10.8401 10 10.7534 10 10.6668C10 10.4934 10.0733 10.3201 10.1933 10.1934C10.2267 10.1668 10.26 10.1401 10.2933 10.1134C10.3333 10.0868 10.3733 10.0668 10.4133 10.0534C10.4533 10.0334 10.4933 10.0201 10.5333 10.0134C10.7533 9.96676 10.98 10.0401 11.14 10.1934C11.26 10.3201 11.3333 10.4868 11.3333 10.6668C11.3333 10.7534 11.3133 10.8401 11.28 10.9201C11.2467 11.0068 11.2 11.0734 11.14 11.1401C11.0133 11.2601 10.84 11.3334 10.6667 11.3334Z" fill="#A2C617"/>
</svg>
