<svg width="16" height="16" viewBox="0 0 16 16" fill="none"
    xmlns="http://www.w3.org/2000/svg">
    <path d="M7.78666 10.2466C7.66 10.2466 7.53333 10.2 7.43333 10.1C7.24 9.90663 7.24 9.58663 7.43333 9.39329L8.78666 8.03996L7.43333 6.68663C7.24 6.49329 7.24 6.17329 7.43333 5.97996C7.62666 5.78663 7.94666 5.78663 8.14 5.97996L9.84666 7.68663C10.04 7.87996 10.04 8.19996 9.84666 8.39329L8.14 10.1C8.04666 10.2 7.91333 10.2466 7.78666 10.2466Z" fill="#A2C617"/>
    <path d="M9.44663 8.54004H2.66663C2.39329 8.54004 2.16663 8.31337 2.16663 8.04004C2.16663 7.76671 2.39329 7.54004 2.66663 7.54004H9.44663C9.71996 7.54004 9.94663 7.76671 9.94663 8.04004C9.94663 8.31337 9.71996 8.54004 9.44663 8.54004Z" fill="#A2C617"/>
    <path d="M8 13.8334C7.72667 13.8334 7.5 13.6067 7.5 13.3334C7.5 13.0601 7.72667 12.8334 8 12.8334C10.8467 12.8334 12.8333 10.8467 12.8333 8.00008C12.8333 5.15341 10.8467 3.16675 8 3.16675C7.72667 3.16675 7.5 2.94008 7.5 2.66675C7.5 2.39341 7.72667 2.16675 8 2.16675C11.4333 2.16675 13.8333 4.56675 13.8333 8.00008C13.8333 11.4334 11.4333 13.8334 8 13.8334Z" fill="#A2C617"/>
</svg>
