<svg width="24" height="24" viewBox="0 0 24 24" fill="none"
    xmlns="http://www.w3.org/2000/svg">
    <path d="M21.4808 7.75H3.01923C2.59872 7.75 2.25 7.41 2.25 7C2.25 6.59 2.59872 6.25 3.01923 6.25H21.4808C21.9013 6.25 22.25 6.59 22.25 7C22.25 7.41 21.9013 7.75 21.4808 7.75Z" fill="#333333"/>
    <path d="M18.3462 12.5H2.65385C2.29641 12.5 2 12.16 2 11.75C2 11.34 2.29641 11 2.65385 11H18.3462C18.7036 11 19 11.34 19 11.75C19 12.16 18.7036 12.5 18.3462 12.5Z" fill="#333333"/>
    <path d="M15.4615 17.5H2.53846C2.2441 17.5 2 17.16 2 16.75C2 16.34 2.2441 16 2.53846 16H15.4615C15.7559 16 16 16.34 16 16.75C16 17.16 15.7559 17.5 15.4615 17.5Z" fill="#292D32"/>
</svg>
