<svg width="32" height="32" viewBox="0 0 32 32" fill="none"
    xmlns="http://www.w3.org/2000/svg">
    <path d="M15.9999 17.0001C11.7733 17.0001 8.33325 13.5601 8.33325 9.33341C8.33325 5.10675 11.7733 1.66675 15.9999 1.66675C20.2266 1.66675 23.6666 5.10675 23.6666 9.33341C23.6666 13.5601 20.2266 17.0001 15.9999 17.0001ZM15.9999 3.66675C12.8799 3.66675 10.3333 6.21341 10.3333 9.33341C10.3333 12.4534 12.8799 15.0001 15.9999 15.0001C19.1199 15.0001 21.6666 12.4534 21.6666 9.33341C21.6666 6.21341 19.1199 3.66675 15.9999 3.66675Z" fill="#828282"/>
    <path d="M27.4535 30.3333C26.9069 30.3333 26.4535 29.88 26.4535 29.3333C26.4535 24.7333 21.7602 21 16.0002 21C10.2402 21 5.54687 24.7333 5.54687 29.3333C5.54687 29.88 5.09354 30.3333 4.54687 30.3333C4.00021 30.3333 3.54688 29.88 3.54688 29.3333C3.54688 23.64 9.13354 19 16.0002 19C22.8669 19 28.4535 23.64 28.4535 29.3333C28.4535 29.88 28.0002 30.3333 27.4535 30.3333Z" fill="#828282"/>
</svg>
