<svg width="33" height="32" viewBox="0 0 33 32" fill="none"
    xmlns="http://www.w3.org/2000/svg">
    <path d="M20.3333 30.3334H12.3333C5.09333 30.3334 2 27.2401 2 20.0001V12.0001C2 4.76008 5.09333 1.66675 12.3333 1.66675H19C19.5467 1.66675 20 2.12008 20 2.66675C20 3.21341 19.5467 3.66675 19 3.66675H12.3333C6.18667 3.66675 4 5.85341 4 12.0001V20.0001C4 26.1467 6.18667 28.3334 12.3333 28.3334H20.3333C26.48 28.3334 28.6667 26.1467 28.6667 20.0001V13.3334C28.6667 12.7867 29.12 12.3334 29.6667 12.3334C30.2133 12.3334 30.6667 12.7867 30.6667 13.3334V20.0001C30.6667 27.2401 27.5733 30.3334 20.3333 30.3334Z" fill="#828282"/>
    <path d="M29.6667 14.3334H24.3333C19.7733 14.3334 18 12.5601 18 8.00007V2.66673C18 2.26673 18.24 1.8934 18.6133 1.74673C18.9867 1.58673 19.4133 1.68007 19.7067 1.96007L30.3733 12.6267C30.6533 12.9067 30.7467 13.3467 30.5867 13.7201C30.4267 14.0934 30.0667 14.3334 29.6667 14.3334ZM20 5.08007V8.00007C20 11.4401 20.8933 12.3334 24.3333 12.3334H27.2533L20 5.08007Z" fill="#828282"/>
    <path d="M17.6665 18.3333H9.6665C9.11984 18.3333 8.6665 17.8799 8.6665 17.3333C8.6665 16.7866 9.11984 16.3333 9.6665 16.3333H17.6665C18.2132 16.3333 18.6665 16.7866 18.6665 17.3333C18.6665 17.8799 18.2132 18.3333 17.6665 18.3333Z" fill="#828282"/>
    <path d="M14.9998 23.6667H9.6665C9.11984 23.6667 8.6665 23.2134 8.6665 22.6667C8.6665 22.1201 9.11984 21.6667 9.6665 21.6667H14.9998C15.5465 21.6667 15.9998 22.1201 15.9998 22.6667C15.9998 23.2134 15.5465 23.6667 14.9998 23.6667Z" fill="#828282"/>
</svg>
