<svg width="8" height="8" viewBox="0 0 8 8" fill="none"
    xmlns="http://www.w3.org/2000/svg">
    <path d="M4.73988 7.21002C4.34655 7.21002 3.78988 6.93336 3.34988 5.61002L3.10988 4.89002L2.38988 4.65002C1.06988 4.21002 0.793213 3.65336 0.793213 3.26002C0.793213 2.87002 1.06988 2.31002 2.38988 1.86669L5.21988 0.923357C5.92655 0.68669 6.51655 0.75669 6.87988 1.11669C7.24321 1.47669 7.31321 2.07002 7.07655 2.77669L6.13321 5.60669C5.68988 6.93336 5.13321 7.21002 4.73988 7.21002ZM2.54655 2.34336C1.61988 2.65336 1.28988 3.02002 1.28988 3.26002C1.28988 3.50002 1.61988 3.86669 2.54655 4.17336L3.38655 4.45336C3.45988 4.47669 3.51988 4.53669 3.54321 4.61002L3.82321 5.45002C4.12988 6.37669 4.49988 6.70669 4.73988 6.70669C4.97988 6.70669 5.34655 6.37669 5.65655 5.45002L6.59988 2.62002C6.76988 2.10669 6.73988 1.68669 6.52321 1.47002C6.30655 1.25336 5.88655 1.22669 5.37655 1.39669L2.54655 2.34336Z" fill="#292D32"/>
    <path d="M3.37002 4.80002C3.30668 4.80002 3.24335 4.77669 3.19335 4.72669C3.09668 4.63002 3.09668 4.47002 3.19335 4.37335L4.38668 3.17669C4.48335 3.08002 4.64335 3.08002 4.74002 3.17669C4.83668 3.27335 4.83668 3.43335 4.74002 3.53002L3.54668 4.72669C3.50002 4.77669 3.43335 4.80002 3.37002 4.80002Z" fill="#292D32"/>
</svg>
