<svg width="25" height="24" viewBox="0 0 25 24" fill="none"
    xmlns="http://www.w3.org/2000/svg">
    <path d="M21.5002 6.72998C21.4802 6.72998 21.4502 6.72998 21.4202 6.72998C16.1302 6.19998 10.8502 5.99998 5.62016 6.52998L3.58016 6.72998C3.16016 6.76998 2.79016 6.46998 2.75016 6.04998C2.71016 5.62998 3.01016 5.26998 3.42016 5.22998L5.46016 5.02998C10.7802 4.48998 16.1702 4.69998 21.5702 5.22998C21.9802 5.26998 22.2802 5.63998 22.2402 6.04998C22.2102 6.43998 21.8802 6.72998 21.5002 6.72998Z" fill="white"/>
    <path d="M8.99977 5.72C8.95977 5.72 8.91977 5.72 8.86977 5.71C8.46977 5.64 8.18977 5.25 8.25977 4.85L8.47977 3.54C8.63977 2.58 8.85977 1.25 11.1898 1.25H13.8098C16.1498 1.25 16.3698 2.63 16.5198 3.55L16.7398 4.85C16.8098 5.26 16.5298 5.65 16.1298 5.71C15.7198 5.78 15.3298 5.5 15.2698 5.1L15.0498 3.8C14.9098 2.93 14.8798 2.76 13.8198 2.76H11.1998C10.1398 2.76 10.1198 2.9 9.96977 3.79L9.73977 5.09C9.67977 5.46 9.35977 5.72 8.99977 5.72Z" fill="white"/>
    <path d="M15.7099 22.7501H9.2899C5.7999 22.7501 5.6599 20.8201 5.5499 19.2601L4.8999 9.19007C4.8699 8.78007 5.1899 8.42008 5.5999 8.39008C6.0199 8.37008 6.3699 8.68008 6.3999 9.09008L7.0499 19.1601C7.1599 20.6801 7.1999 21.2501 9.2899 21.2501H15.7099C17.8099 21.2501 17.8499 20.6801 17.9499 19.1601L18.5999 9.09008C18.6299 8.68008 18.9899 8.37008 19.3999 8.39008C19.8099 8.42008 20.1299 8.77007 20.0999 9.19007L19.4499 19.2601C19.3399 20.8201 19.1999 22.7501 15.7099 22.7501Z" fill="white"/>
    <path d="M14.1601 17.25H10.8301C10.4201 17.25 10.0801 16.91 10.0801 16.5C10.0801 16.09 10.4201 15.75 10.8301 15.75H14.1601C14.5701 15.75 14.9101 16.09 14.9101 16.5C14.9101 16.91 14.5701 17.25 14.1601 17.25Z" fill="white"/>
    <path d="M15 13.25H10C9.59 13.25 9.25 12.91 9.25 12.5C9.25 12.09 9.59 11.75 10 11.75H15C15.41 11.75 15.75 12.09 15.75 12.5C15.75 12.91 15.41 13.25 15 13.25Z" fill="white"/>
</svg>
