<svg width="16" height="16" viewBox="0 0 16 16" fill="none"
    xmlns="http://www.w3.org/2000/svg">
    <path d="M6.31328 10.1866C6.18661 10.1866 6.05995 10.1399 5.95995 10.0399C5.41328 9.49328 5.11328 8.76661 5.11328 7.99995C5.11328 6.40661 6.40661 5.11328 7.99995 5.11328C8.76661 5.11328 9.49328 5.41328 10.0399 5.95995C10.1333 6.05328 10.1866 6.17995 10.1866 6.31328C10.1866 6.44661 10.1333 6.57328 10.0399 6.66661L6.66661 10.0399C6.56661 10.1399 6.43995 10.1866 6.31328 10.1866ZM7.99995 6.11328C6.95995 6.11328 6.11328 6.95995 6.11328 7.99995C6.11328 8.33328 6.19995 8.65328 6.35995 8.93328L8.93328 6.35995C8.65328 6.19995 8.33328 6.11328 7.99995 6.11328Z" fill="#7E7D89"/>
    <path d="M3.73335 12.3399C3.62002 12.3399 3.50002 12.2999 3.40668 12.2199C2.69335 11.6132 2.05335 10.8666 1.50668 9.99991C0.800018 8.89991 0.800018 7.10657 1.50668 5.99991C3.13335 3.45324 5.50002 1.98657 8.00002 1.98657C9.46668 1.98657 10.9134 2.49324 12.18 3.44657C12.4 3.61324 12.4467 3.92657 12.28 4.14657C12.1134 4.36657 11.8 4.41324 11.58 4.24657C10.4867 3.41991 9.24668 2.98657 8.00002 2.98657C5.84668 2.98657 3.78668 4.27991 2.34668 6.53991C1.84668 7.31991 1.84668 8.6799 2.34668 9.4599C2.84668 10.2399 3.42002 10.9132 4.05335 11.4599C4.26002 11.6399 4.28668 11.9532 4.10668 12.1666C4.01335 12.2799 3.87335 12.3399 3.73335 12.3399Z" fill="#7E7D89"/>
    <path d="M7.99996 14.0134C7.11329 14.0134 6.24663 13.8334 5.41329 13.4801C5.15996 13.3734 5.03996 13.0801 5.14663 12.8267C5.25329 12.5734 5.54663 12.4534 5.79996 12.5601C6.50663 12.8601 7.24663 13.0134 7.99329 13.0134C10.1466 13.0134 12.2066 11.7201 13.6466 9.46008C14.1466 8.68008 14.1466 7.32008 13.6466 6.54008C13.44 6.21341 13.2133 5.90008 12.9733 5.60675C12.8 5.39341 12.8333 5.08008 13.0466 4.90008C13.26 4.72675 13.5733 4.75341 13.7533 4.97341C14.0133 5.29341 14.2666 5.64008 14.4933 6.00008C15.2 7.10008 15.2 8.89341 14.4933 10.0001C12.8666 12.5467 10.5 14.0134 7.99996 14.0134Z" fill="#292D32"/>
    <path d="M8.45997 10.8467C8.22664 10.8467 8.01331 10.68 7.96664 10.44C7.91331 10.1667 8.09331 9.90665 8.36664 9.85999C9.09997 9.72665 9.71331 9.11332 9.84664 8.37999C9.89997 8.10665 10.16 7.93332 10.4333 7.97999C10.7066 8.03332 10.8866 8.29332 10.8333 8.56665C10.62 9.71999 9.69997 10.6333 8.55331 10.8467C8.51997 10.84 8.49331 10.8467 8.45997 10.8467Z" fill="#292D32"/>
    <path d="M1.33329 15.1666C1.20663 15.1666 1.07996 15.1199 0.979961 15.0199C0.786628 14.8266 0.786628 14.5066 0.979961 14.3132L5.95996 9.33323C6.15329 9.1399 6.47329 9.1399 6.66663 9.33323C6.85996 9.52657 6.85996 9.84657 6.66663 10.0399L1.68663 15.0199C1.58663 15.1199 1.45996 15.1666 1.33329 15.1666Z" fill="#292D32"/>
    <path d="M9.68669 6.81329C9.56002 6.81329 9.43335 6.76663 9.33335 6.66663C9.14002 6.47329 9.14002 6.15329 9.33335 5.95996L14.3134 0.979961C14.5067 0.786628 14.8267 0.786628 15.02 0.979961C15.2134 1.17329 15.2134 1.49329 15.02 1.68663L10.04 6.66663C9.94002 6.76663 9.81335 6.81329 9.68669 6.81329Z" fill="#292D32"/>
</svg>
